<?xml version="1.0" standalone="no"?>
<!DOCTYPE svg PUBLIC "-//W3C//DTD SVG 20010904//EN"
 "http://www.w3.org/TR/2001/REC-SVG-20010904/DTD/svg10.dtd">
<svg version="1.0" xmlns="http://www.w3.org/2000/svg"
 viewBox="0 0 810 916"
 preserveAspectRatio="xMidYMid meet">

<g transform="translate(0.000000,916.000000) scale(0.100000,-0.100000)"
fill="#000000" stroke="none">
<path d="M2295 5461 c-185 -53 -290 -175 -302 -350 -11 -154 50 -271 181 -349
30 -19 118 -60 194 -91 207 -86 276 -133 324 -222 20 -38 23 -58 23 -144 0
-89 -3 -106 -27 -151 -64 -122 -171 -177 -340 -175 -128 1 -247 37 -340 103
l-28 19 0 -26 c0 -22 10 -31 73 -60 104 -50 186 -68 302 -69 250 -1 441 136
485 348 39 190 -54 349 -263 450 -51 24 -145 69 -210 101 -193 92 -252 164
-251 305 2 165 109 278 275 288 98 6 202 -12 279 -49 73 -34 70 -34 70 -10 0
13 -17 26 -58 44 -126 57 -272 71 -387 38z"/>
<path d="M3050 4715 l0 -715 365 0 c318 0 365 2 365 15 0 13 -38 15 -285 15
l-285 0 0 350 0 350 255 0 c248 0 255 1 255 20 0 19 -7 20 -255 20 l-255 0 0
315 0 315 285 0 c247 0 285 2 285 15 0 13 -47 15 -365 15 l-365 0 0 -715z"/>
<path d="M3990 4715 l0 -715 80 0 80 0 0 335 0 335 54 0 54 0 267 -335 266
-335 100 0 c56 0 98 4 95 9 -3 5 -123 157 -266 337 l-261 328 85 23 c157 41
252 108 303 211 39 79 45 211 13 294 -38 103 -132 175 -276 212 -49 13 -117
16 -328 16 l-266 0 0 -715z m532 661 c116 -43 178 -140 186 -290 8 -156 -32
-254 -126 -314 -73 -46 -142 -63 -294 -69 l-138 -6 0 353 0 352 163 -4 c120
-4 174 -9 209 -22z"/>
<path d="M5190 4715 l0 -715 80 0 80 0 0 335 0 335 124 0 c345 0 538 101 592
310 44 174 -28 327 -190 400 -98 44 -148 50 -426 50 l-260 0 0 -715z m534 657
c79 -36 112 -67 148 -139 31 -64 33 -73 33 -178 -1 -120 -15 -168 -69 -233
-66 -78 -164 -111 -353 -119 l-133 -6 0 353 0 352 163 -4 c142 -3 168 -6 211
-26z"/>
</g>
</svg>
